<svg width="19" height="16" viewBox="0 0 19 16" fill="none" xmlns="http://www.w3.org/2000/svg">
<path d="M7.96044 7.52941C6.92515 7.52941 6.03887 7.16078 5.30162 6.42353C4.56436 5.68627 4.19574 4.8 4.19574 3.76471C4.19574 2.72941 4.56436 1.84314 5.30162 1.10588C6.03887 0.368627 6.92515 0 7.96044 0C8.99574 0 9.88201 0.368627 10.6193 1.10588C11.3565 1.84314 11.7251 2.72941 11.7251 3.76471C11.7251 4.8 11.3565 5.68627 10.6193 6.42353C9.88201 7.16078 8.99574 7.52941 7.96044 7.52941ZM1.37221 15.0588C1.10554 15.0588 0.882011 14.9686 0.701619 14.7882C0.521226 14.6078 0.43103 14.3843 0.43103 14.1176V12.4235C0.43103 11.9059 0.564364 11.4196 0.83103 10.9647C1.0977 10.5098 1.46632 10.1647 1.93691 9.92941C2.73691 9.52157 3.63887 9.17647 4.6428 8.89412C5.64672 8.61176 6.7526 8.47059 7.96044 8.47059H8.28985C8.38397 8.47059 8.47809 8.48627 8.57221 8.51765C8.44672 8.8 8.34083 9.09412 8.25456 9.4C8.16829 9.70588 8.10162 10.0235 8.05456 10.3529H7.96044C6.84672 10.3529 5.84672 10.4941 4.96044 10.7765C4.07417 11.0588 3.34868 11.3412 2.78397 11.6235C2.6428 11.702 2.52907 11.8118 2.4428 11.9529C2.35652 12.0941 2.31338 12.251 2.31338 12.4235V13.1765H8.2428C8.33691 13.5059 8.4624 13.8314 8.61927 14.1529C8.77613 14.4745 8.94868 14.7765 9.13691 15.0588H1.37221ZM7.96044 5.64706C8.47809 5.64706 8.92123 5.46275 9.28985 5.09412C9.65848 4.72549 9.8428 4.28235 9.8428 3.76471C9.8428 3.24706 9.65848 2.80392 9.28985 2.43529C8.92123 2.06667 8.47809 1.88235 7.96044 1.88235C7.4428 1.88235 6.99966 2.06667 6.63103 2.43529C6.2624 2.80392 6.07809 3.24706 6.07809 3.76471C6.07809 4.28235 6.2624 4.72549 6.63103 5.09412C6.99966 5.46275 7.4428 5.64706 7.96044 5.64706ZM14.5487 13.1765C15.0663 13.1765 15.5095 12.9922 15.8781 12.6235C16.2467 12.2549 16.431 11.8118 16.431 11.2941C16.431 10.7765 16.2467 10.3333 15.8781 9.96471C15.5095 9.59608 15.0663 9.41176 14.5487 9.41176C14.031 9.41176 13.5879 9.59608 13.2193 9.96471C12.8506 10.3333 12.6663 10.7765 12.6663 11.2941C12.6663 11.8118 12.8506 12.2549 13.2193 12.6235C13.5879 12.9922 14.031 13.1765 14.5487 13.1765ZM13.3251 14.5882C13.1369 14.5098 12.9604 14.4275 12.7957 14.3412C12.631 14.2549 12.4624 14.149 12.2899 14.0235L11.2781 14.3294C11.1683 14.3608 11.0663 14.3569 10.9722 14.3176C10.8781 14.2784 10.7997 14.2118 10.7369 14.1176L10.1722 13.1765C10.1095 13.0824 10.0899 12.9804 10.1134 12.8706C10.1369 12.7608 10.1957 12.6667 10.2899 12.5882L11.0663 11.9059C11.035 11.6863 11.0193 11.4824 11.0193 11.2941C11.0193 11.1059 11.035 10.902 11.0663 10.6824L10.2899 10C10.1957 9.92157 10.1369 9.82745 10.1134 9.71765C10.0899 9.60784 10.1095 9.50588 10.1722 9.41176L10.7369 8.47059C10.7997 8.37647 10.8781 8.3098 10.9722 8.27059C11.0663 8.23137 11.1683 8.22745 11.2781 8.25882L12.2899 8.56471C12.4624 8.43922 12.631 8.33333 12.7957 8.24706C12.9604 8.16078 13.1369 8.07843 13.3251 8L13.5369 6.96471C13.5683 6.8549 13.6232 6.76471 13.7016 6.69412C13.7801 6.62353 13.8742 6.58824 13.984 6.58824H15.1134C15.2232 6.58824 15.3173 6.62353 15.3957 6.69412C15.4742 6.76471 15.5291 6.8549 15.5604 6.96471L15.7722 8C15.9604 8.07843 16.1369 8.16471 16.3016 8.25882C16.4663 8.35294 16.635 8.47059 16.8075 8.61177L17.7957 8.25882C17.9055 8.21177 18.0114 8.21177 18.1134 8.25882C18.2153 8.30588 18.2977 8.37647 18.3604 8.47059L18.9251 9.45882C18.9879 9.55294 19.0114 9.6549 18.9957 9.76471C18.9801 9.87451 18.9251 9.96863 18.831 10.0471L18.031 10.7294C18.0624 10.9176 18.0781 11.1137 18.0781 11.3176C18.0781 11.5216 18.0624 11.7176 18.031 11.9059L18.8075 12.5882C18.9016 12.6667 18.9604 12.7608 18.984 12.8706C19.0075 12.9804 18.9879 13.0824 18.9251 13.1765L18.3604 14.1176C18.2977 14.2118 18.2193 14.2784 18.1251 14.3176C18.031 14.3569 17.9291 14.3608 17.8193 14.3294L16.8075 14.0235C16.635 14.149 16.4663 14.2549 16.3016 14.3412C16.1369 14.4275 15.9604 14.5098 15.7722 14.5882L15.5604 15.6235C15.5291 15.7333 15.4742 15.8235 15.3957 15.8941C15.3173 15.9647 15.2232 16 15.1134 16H13.984C13.8742 16 13.7801 15.9647 13.7016 15.8941C13.6232 15.8235 13.5683 15.7333 13.5369 15.6235L13.3251 14.5882Z" fill="#0063FF"/>
</svg>
