<svg width="19" height="18" viewBox="0 0 19 18" fill="none" xmlns="http://www.w3.org/2000/svg">
<path d="M4.67739 6.18086L8.19246 0.448231C8.28683 0.290957 8.40478 0.176933 8.54633 0.10616C8.68788 0.0353866 8.83729 0 8.99456 0C9.15183 0 9.30125 0.0353866 9.44279 0.10616C9.58434 0.176933 9.70229 0.290957 9.79666 0.448231L13.3117 6.18086C13.4061 6.33814 13.4533 6.50328 13.4533 6.67628C13.4533 6.84928 13.414 7.00655 13.3353 7.1481C13.2567 7.28965 13.1466 7.40367 13.005 7.49017C12.8635 7.57667 12.6984 7.61992 12.5096 7.61992H5.47949C5.29076 7.61992 5.12562 7.57667 4.98408 7.49017C4.84253 7.40367 4.73244 7.28965 4.6538 7.1481C4.57516 7.00655 4.53585 6.84928 4.53585 6.67628C4.53585 6.50328 4.58303 6.33814 4.67739 6.18086ZM14.1846 18C13.005 18 12.0024 17.5872 11.1767 16.7615C10.351 15.9358 9.9382 14.9332 9.9382 13.7536C9.9382 12.574 10.351 11.5714 11.1767 10.7457C12.0024 9.92005 13.005 9.50721 14.1846 9.50721C15.3642 9.50721 16.3668 9.92005 17.1925 10.7457C18.0182 11.5714 18.431 12.574 18.431 13.7536C18.431 14.9332 18.0182 15.9358 17.1925 16.7615C16.3668 17.5872 15.3642 18 14.1846 18ZM0.50177 16.5845V10.9227C0.50177 10.6553 0.592203 10.4312 0.773068 10.2503C0.953932 10.0695 1.17805 9.97903 1.44541 9.97903H7.10727C7.37464 9.97903 7.59876 10.0695 7.77962 10.2503C7.96049 10.4312 8.05092 10.6553 8.05092 10.9227V16.5845C8.05092 16.8519 7.96049 17.076 7.77962 17.2569C7.59876 17.4377 7.37464 17.5282 7.10727 17.5282H1.44541C1.17805 17.5282 0.953932 17.4377 0.773068 17.2569C0.592203 17.076 0.50177 16.8519 0.50177 16.5845ZM14.1846 16.1127C14.8452 16.1127 15.4035 15.8847 15.8596 15.4286C16.3157 14.9725 16.5437 14.4142 16.5437 13.7536C16.5437 13.0931 16.3157 12.5347 15.8596 12.0786C15.4035 11.6225 14.8452 11.3945 14.1846 11.3945C13.524 11.3945 12.9657 11.6225 12.5096 12.0786C12.0535 12.5347 11.8255 13.0931 11.8255 13.7536C11.8255 14.4142 12.0535 14.9725 12.5096 15.4286C12.9657 15.8847 13.524 16.1127 14.1846 16.1127ZM2.38906 15.6409H6.16363V11.8663H2.38906V15.6409ZM7.15446 5.73263H10.8347L8.99456 2.76016L7.15446 5.73263Z" fill="#0063FF"/>
</svg>
