<svg width="16" height="20" viewBox="0 0 16 20" fill="none" xmlns="http://www.w3.org/2000/svg">
<path d="M8.00608 10.7298C7.09326 10.7298 6.3234 10.4163 5.69648 9.7894C5.06956 9.16248 4.7561 8.39262 4.7561 7.4798C4.7561 6.56698 5.06956 5.79712 5.69648 5.1702C6.3234 4.54328 7.09326 4.22982 8.00608 4.22982C8.91889 4.22982 9.68876 4.54328 10.3157 5.1702C10.9426 5.79712 11.2561 6.56698 11.2561 7.4798C11.2561 8.39262 10.9426 9.16248 10.3157 9.7894C9.68876 10.4163 8.91889 10.7298 8.00608 10.7298ZM8.00608 9.22983C8.50351 9.22983 8.91955 9.06252 9.25418 8.7279C9.5888 8.39327 9.7561 7.97723 9.7561 7.4798C9.7561 6.98237 9.5888 6.56633 9.25418 6.2317C8.91955 5.89708 8.50351 5.72978 8.00608 5.72978C7.50864 5.72978 7.09261 5.89708 6.75798 6.2317C6.42336 6.56633 6.25605 6.98237 6.25605 7.4798C6.25605 7.97723 6.42336 8.39327 6.75798 8.7279C7.09261 9.06252 7.50864 9.22983 8.00608 9.22983ZM8.00608 2.11442L2.00608 4.3548V9.0798C2.00608 10.0311 2.1423 10.951 2.41473 11.8394C2.68718 12.7279 3.06571 13.5567 3.55033 14.326C4.22468 13.9824 4.93076 13.7138 5.66858 13.5202C6.4064 13.3266 7.18556 13.2298 8.00608 13.2298C8.82659 13.2298 9.60576 13.3266 10.3436 13.5202C11.0814 13.7138 11.7875 13.9824 12.4618 14.326C12.9464 13.5567 13.325 12.7279 13.5974 11.8394C13.8699 10.951 14.0061 10.0311 14.0061 9.0798V4.3548L8.00608 2.11442ZM8.00608 14.7298C7.36119 14.7298 6.741 14.7997 6.1455 14.9394C5.54999 15.0792 4.98748 15.2753 4.45798 15.5279C4.95414 16.0792 5.49999 16.5558 6.0955 16.9577C6.691 17.3596 7.32786 17.667 8.00608 17.8798C8.68429 17.667 9.31955 17.3596 9.91185 16.9577C10.5042 16.5558 11.0484 16.0792 11.5446 15.5279C11.0151 15.2753 10.4542 15.0792 9.86185 14.9394C9.26955 14.7997 8.65096 14.7298 8.00608 14.7298ZM8.00608 19.3509C7.90223 19.3509 7.8003 19.3426 7.7003 19.3259C7.6003 19.3093 7.50351 19.2843 7.40993 19.2509C5.30096 18.5009 3.62309 17.1711 2.3763 15.2615C1.1295 13.3519 0.506104 11.2913 0.506104 9.0798V4.57597C0.506104 4.19777 0.61572 3.85643 0.834953 3.55195C1.05419 3.24745 1.33624 3.02662 1.6811 2.88945L7.3734 0.764449C7.5875 0.687533 7.79839 0.649075 8.00608 0.649075C8.21376 0.649075 8.42465 0.687533 8.63875 0.764449L14.3311 2.88945C14.6759 3.02662 14.958 3.24745 15.1772 3.55195C15.3964 3.85643 15.5061 4.19777 15.5061 4.57597V9.0798C15.5061 11.2913 14.8827 13.3519 13.6359 15.2615C12.3891 17.1711 10.7112 18.5009 8.60223 19.2509C8.50865 19.2843 8.41185 19.3093 8.31185 19.3259C8.21185 19.3426 8.10993 19.3509 8.00608 19.3509Z" fill="#0063FF"/>
</svg>
