<svg width="12" height="18" viewBox="0 0 12 18" fill="none" xmlns="http://www.w3.org/2000/svg">
<path d="M0.975463 17.75C0.712646 17.75 0.484446 17.6532 0.290863 17.4596C0.0972797 17.266 0.000488281 17.0378 0.000488281 16.775C0.000488281 16.6275 0.0466381 16.4673 0.138938 16.2942C0.231255 16.1211 0.354972 15.9602 0.510088 15.8115C1.03446 15.432 1.51395 14.9359 1.94856 14.323C2.38318 13.7102 2.60049 12.9872 2.60049 12.1538C2.60049 11.932 2.58799 11.7266 2.56299 11.5375C2.53799 11.3484 2.4992 11.1628 2.44664 10.9808H0.750463C0.537646 10.9808 0.359446 10.909 0.215863 10.7654C0.0722797 10.6218 0.000488281 10.4436 0.000488281 10.2308C0.000488281 10.018 0.0722797 9.83976 0.215863 9.69617C0.359446 9.55257 0.537646 9.48077 0.750463 9.48077H1.64471C1.20496 8.90514 0.820988 8.30514 0.492788 7.68077C0.164588 7.05642 0.000488281 6.32951 0.000488281 5.50002C0.000488281 4.03721 0.50978 2.79651 1.52836 1.77792C2.54695 0.759324 3.78765 0.250023 5.25046 0.250023C6.16841 0.250023 6.9979 0.456115 7.73891 0.868298C8.47995 1.28048 9.08764 1.83016 9.56199 2.51735C9.70429 2.72375 9.75781 2.94362 9.72256 3.17695C9.68731 3.41027 9.55815 3.57436 9.33506 3.66922C9.15943 3.74359 8.9745 3.7452 8.78029 3.67405C8.58605 3.6029 8.42291 3.4795 8.29086 3.30385C7.9383 2.82565 7.50208 2.44712 6.98221 2.16827C6.46233 1.88942 5.88508 1.75 5.25046 1.75C4.21328 1.75 3.32898 2.11571 2.59756 2.84712C1.86615 3.57854 1.50044 4.46284 1.50044 5.50002C1.50044 6.26156 1.69403 6.92502 2.08121 7.4904C2.4684 8.05578 2.92481 8.71924 3.45046 9.48077H6.75046C6.96328 9.48077 7.14148 9.55257 7.28506 9.69617C7.42865 9.83976 7.50044 10.018 7.50044 10.2308C7.50044 10.4436 7.42865 10.6218 7.28506 10.7654C7.14148 10.909 6.96328 10.9808 6.75046 10.9808H3.99659C4.03634 11.1564 4.06359 11.3404 4.07834 11.5327C4.09307 11.725 4.10044 11.932 4.10044 12.1538C4.10044 12.9936 3.92256 13.7596 3.56679 14.4519C3.21101 15.1442 2.76388 15.7436 2.22541 16.25H7.75046C8.25431 16.25 8.67804 16.158 9.02164 15.974C9.36522 15.7901 9.6383 15.5308 9.84086 15.1961C9.97291 14.9897 10.1319 14.8535 10.3178 14.7875C10.5037 14.7215 10.6844 14.7359 10.8601 14.8308C11.0972 14.9462 11.2283 15.1086 11.2533 15.3182C11.2783 15.5279 11.2331 15.7359 11.1178 15.9423C10.7934 16.5064 10.3306 16.9487 9.72931 17.2692C9.12803 17.5897 8.46841 17.75 7.75046 17.75H0.975463Z" fill="#0063FF"/>
</svg>
