<svg width="19" height="18" viewBox="0 0 19 18" fill="none" xmlns="http://www.w3.org/2000/svg">
<path d="M0.75 17.5C0.5375 17.5 0.359375 17.428 0.215625 17.2842C0.071875 17.1404 0 16.9622 0 16.7496C0 16.537 0.071875 16.3589 0.215625 16.2154C0.359375 16.0718 0.5375 16 0.75 16H18.25C18.4625 16 18.6406 16.0719 18.7843 16.2157C18.9281 16.3595 19 16.5377 19 16.7503C19 16.9629 18.9281 17.141 18.7843 17.2846C18.6406 17.4282 18.4625 17.5 18.25 17.5H0.75ZM2.25113 14.6153C1.90423 14.6153 1.60898 14.4938 1.3654 14.2508C1.1218 14.0077 1 13.7126 1 13.3654V9.75C1 9.40279 1.12142 9.10765 1.36425 8.8646C1.60708 8.62153 1.90195 8.5 2.24885 8.5C2.59577 8.5 2.89102 8.62153 3.1346 8.8646C3.37818 9.10765 3.49998 9.40279 3.49998 9.75V13.3654C3.49998 13.7126 3.37856 14.0077 3.13573 14.2508C2.89289 14.4938 2.59803 14.6153 2.25113 14.6153ZM7.07803 14.6153C6.73113 14.6153 6.43588 14.4938 6.1923 14.2508C5.94872 14.0077 5.82693 13.7126 5.82693 13.3654V4.75C5.82693 4.40278 5.94834 4.10765 6.19118 3.8646C6.43401 3.62153 6.72888 3.5 7.07578 3.5C7.42268 3.5 7.71792 3.62153 7.9615 3.8646C8.20508 4.10765 8.32688 4.40278 8.32688 4.75V13.3654C8.32688 13.7126 8.20547 14.0077 7.96265 14.2508C7.71982 14.4938 7.42494 14.6153 7.07803 14.6153ZM11.9146 14.6153C11.5677 14.6153 11.2724 14.4938 11.0288 14.2508C10.7852 14.0077 10.6635 13.7126 10.6635 13.3654V7.75C10.6635 7.40278 10.7849 7.10765 11.0277 6.8646C11.2705 6.62153 11.5654 6.5 11.9123 6.5C12.2592 6.5 12.5544 6.62153 12.798 6.8646C13.0416 7.10765 13.1634 7.40278 13.1634 7.75V13.3654C13.1634 13.7126 13.042 14.0077 12.7992 14.2508C12.5563 14.4938 12.2615 14.6153 11.9146 14.6153ZM16.7511 14.6153C16.4042 14.6153 16.1089 14.4938 15.8654 14.2508C15.6218 14.0077 15.5 13.7126 15.5 13.3654V1.75C15.5 1.40278 15.6214 1.10765 15.8642 0.864601C16.1071 0.621534 16.4019 0.5 16.7488 0.5C17.0957 0.5 17.391 0.621534 17.6346 0.864601C17.8782 1.10765 18 1.40278 18 1.75V13.3654C18 13.7126 17.8785 14.0077 17.6357 14.2508C17.3929 14.4938 17.098 14.6153 16.7511 14.6153Z" fill="#0063FF"/>
</svg>
