<svg width="20" height="16" viewBox="0 0 20 16" fill="none" xmlns="http://www.w3.org/2000/svg">
<path d="M1.80764 15.249C1.30251 15.249 0.874939 15.074 0.524939 14.724C0.174939 14.374 -6.10352e-05 13.9464 -6.10352e-05 13.4413V2.05676C-6.10352e-05 1.55163 0.174939 1.12406 0.524939 0.774062C0.874939 0.424062 1.30251 0.249062 1.80764 0.249062H17.1922C17.6973 0.249062 18.1249 0.424062 18.4749 0.774062C18.8249 1.12406 18.9999 1.55163 18.9999 2.05676V7.19714C18.9999 7.40995 18.9281 7.58815 18.7845 7.73174C18.6409 7.87534 18.4627 7.94714 18.2499 7.94714C18.0371 7.94714 17.8589 7.87534 17.7153 7.73174C17.5717 7.58815 17.4999 7.40995 17.4999 7.19714V2.05676C17.4999 1.97983 17.4679 1.9093 17.4038 1.84519C17.3396 1.78109 17.2691 1.74904 17.1922 1.74904H1.80764C1.73071 1.74904 1.66018 1.78109 1.59606 1.84519C1.53196 1.9093 1.49991 1.97983 1.49991 2.05676V13.4413C1.49991 13.5182 1.53196 13.5888 1.59606 13.6529C1.66018 13.717 1.73071 13.749 1.80764 13.749H10.948C11.1608 13.749 11.339 13.8208 11.4826 13.9644C11.6262 14.108 11.698 14.2862 11.698 14.499C11.698 14.7118 11.6262 14.89 11.4826 15.0336C11.339 15.1772 11.1608 15.249 10.948 15.249H1.80764ZM16.0153 14.2336L14.7692 13.6606C14.5884 13.5836 14.498 13.4465 14.498 13.249C14.498 13.0516 14.5884 12.9144 14.7692 12.8375L16.0153 12.2644L16.5884 11.0183C16.6653 10.8375 16.8025 10.7471 16.9999 10.7471C17.1973 10.7471 17.3345 10.8375 17.4114 11.0183L17.9845 12.2644L19.2307 12.8375C19.4114 12.9144 19.5018 13.0516 19.5018 13.249C19.5018 13.4465 19.4114 13.5836 19.2307 13.6606L17.9845 14.2336L17.4114 15.4798C17.3345 15.6606 17.1973 15.7509 16.9999 15.7509C16.8025 15.7509 16.6653 15.6606 16.5884 15.4798L16.0153 14.2336ZM8.34606 8.90289L9.08839 10.5471C9.16531 10.7279 9.30248 10.8183 9.49991 10.8183C9.69735 10.8183 9.83452 10.7279 9.91144 10.5471L10.6538 8.90289L12.298 8.16056C12.4787 8.08365 12.5691 7.94647 12.5691 7.74904C12.5691 7.5516 12.4787 7.41443 12.298 7.33751L10.6538 6.59519L9.91144 4.95099C9.83452 4.7702 9.69735 4.67981 9.49991 4.67981C9.30248 4.67981 9.16531 4.7702 9.08839 4.95099L8.34606 6.59519L6.70186 7.33751C6.52108 7.41443 6.43069 7.5516 6.43069 7.74904C6.43069 7.94647 6.52108 8.08365 6.70186 8.16056L8.34606 8.90289Z" fill="#0063FF"/>
</svg>
