<svg width="19" height="18" viewBox="0 0 19 18" fill="none" xmlns="http://www.w3.org/2000/svg">
<path d="M4.10177 14.4H9.50177V13.995C9.50177 13.74 9.43052 13.5037 9.28802 13.2862C9.14552 13.0687 8.94677 12.9 8.69177 12.78C8.39177 12.645 8.08802 12.5437 7.78052 12.4762C7.47302 12.4087 7.14677 12.375 6.80177 12.375C6.45677 12.375 6.13052 12.4087 5.82302 12.4762C5.51552 12.5437 5.21177 12.645 4.91177 12.78C4.65677 12.9 4.45802 13.0687 4.31552 13.2862C4.17302 13.5037 4.10177 13.74 4.10177 13.995V14.4ZM11.9768 13.05H14.2268C14.4218 13.05 14.583 12.9862 14.7105 12.8588C14.838 12.7313 14.9018 12.57 14.9018 12.375C14.9018 12.18 14.838 12.0188 14.7105 11.8913C14.583 11.7638 14.4218 11.7 14.2268 11.7H11.9768C11.7818 11.7 11.6205 11.7638 11.493 11.8913C11.3655 12.0188 11.3018 12.18 11.3018 12.375C11.3018 12.57 11.3655 12.7313 11.493 12.8588C11.6205 12.9862 11.7818 13.05 11.9768 13.05ZM6.80177 11.7C7.17677 11.7 7.49552 11.5687 7.75802 11.3062C8.02052 11.0437 8.15177 10.725 8.15177 10.35C8.15177 9.975 8.02052 9.65625 7.75802 9.39375C7.49552 9.13125 7.17677 9 6.80177 9C6.42677 9 6.10802 9.13125 5.84552 9.39375C5.58302 9.65625 5.45177 9.975 5.45177 10.35C5.45177 10.725 5.58302 11.0437 5.84552 11.3062C6.10802 11.5687 6.42677 11.7 6.80177 11.7ZM11.9768 10.35H14.2268C14.4218 10.35 14.583 10.2863 14.7105 10.1588C14.838 10.0313 14.9018 9.87 14.9018 9.675C14.9018 9.48 14.838 9.31875 14.7105 9.19125C14.583 9.06375 14.4218 9 14.2268 9H11.9768C11.7818 9 11.6205 9.06375 11.493 9.19125C11.3655 9.31875 11.3018 9.48 11.3018 9.675C11.3018 9.87 11.3655 10.0313 11.493 10.1588C11.6205 10.2863 11.7818 10.35 11.9768 10.35ZM2.30177 18C1.80677 18 1.38302 17.8237 1.03052 17.4712C0.67802 17.1187 0.50177 16.695 0.50177 16.2V6.3C0.50177 5.805 0.67802 5.38125 1.03052 5.02875C1.38302 4.67625 1.80677 4.5 2.30177 4.5H6.80177V1.8C6.80177 1.305 6.97802 0.88125 7.33052 0.52875C7.68302 0.17625 8.10677 0 8.60177 0H10.4018C10.8968 0 11.3205 0.17625 11.673 0.52875C12.0255 0.88125 12.2018 1.305 12.2018 1.8V4.5H16.7018C17.1968 4.5 17.6205 4.67625 17.973 5.02875C18.3255 5.38125 18.5018 5.805 18.5018 6.3V16.2C18.5018 16.695 18.3255 17.1187 17.973 17.4712C17.6205 17.8237 17.1968 18 16.7018 18H2.30177ZM2.30177 16.2H16.7018V6.3H12.2018C12.2018 6.795 12.0255 7.21875 11.673 7.57125C11.3205 7.92375 10.8968 8.1 10.4018 8.1H8.60177C8.10677 8.1 7.68302 7.92375 7.33052 7.57125C6.97802 7.21875 6.80177 6.795 6.80177 6.3H2.30177V16.2ZM8.60177 6.3H10.4018V1.8H8.60177V6.3Z" fill="#0063FF"/>
</svg>
