<svg width="19" height="16" viewBox="0 0 19 16" fill="none" xmlns="http://www.w3.org/2000/svg">
<path d="M1.13864 16C0.975679 16 0.827531 15.9593 0.694198 15.8778C0.560864 15.7963 0.457161 15.6889 0.383087 15.5556C0.309013 15.4222 0.268272 15.2778 0.260864 15.1222C0.253457 14.9667 0.294198 14.8148 0.383087 14.6667L8.60531 0.444444C8.6942 0.296296 8.80901 0.185185 8.94975 0.111111C9.09049 0.037037 9.23494 0 9.38309 0C9.53123 0 9.67568 0.037037 9.81642 0.111111C9.95716 0.185185 10.072 0.296296 10.1609 0.444444L18.3831 14.6667C18.472 14.8148 18.5127 14.9667 18.5053 15.1222C18.4979 15.2778 18.4572 15.4222 18.3831 15.5556C18.309 15.6889 18.2053 15.7963 18.072 15.8778C17.9386 15.9593 17.7905 16 17.6275 16H1.13864ZM2.67198 14.2222H16.0942L9.38309 2.66667L2.67198 14.2222ZM9.38309 13.3333C9.63494 13.3333 9.84605 13.2481 10.0164 13.0778C10.1868 12.9074 10.272 12.6963 10.272 12.4444C10.272 12.1926 10.1868 11.9815 10.0164 11.8111C9.84605 11.6407 9.63494 11.5556 9.38309 11.5556C9.13123 11.5556 8.92012 11.6407 8.74975 11.8111C8.57938 11.9815 8.4942 12.1926 8.4942 12.4444C8.4942 12.6963 8.57938 12.9074 8.74975 13.0778C8.92012 13.2481 9.13123 13.3333 9.38309 13.3333ZM9.38309 10.6667C9.63494 10.6667 9.84605 10.5815 10.0164 10.4111C10.1868 10.2407 10.272 10.0296 10.272 9.77778V7.11111C10.272 6.85926 10.1868 6.64815 10.0164 6.47778C9.84605 6.30741 9.63494 6.22222 9.38309 6.22222C9.13123 6.22222 8.92012 6.30741 8.74975 6.47778C8.57938 6.64815 8.4942 6.85926 8.4942 7.11111V9.77778C8.4942 10.0296 8.57938 10.2407 8.74975 10.4111C8.92012 10.5815 9.13123 10.6667 9.38309 10.6667Z" fill="#0063FF"/>
</svg>
