<svg width="20" height="20" viewBox="0 0 20 20" fill="none" xmlns="http://www.w3.org/2000/svg">
<path d="M2.23873 19.3846C1.7336 19.3846 1.30603 19.2096 0.95603 18.8596C0.60603 18.5096 0.43103 18.082 0.43103 17.5769V8.19233C0.43103 7.68719 0.60603 7.25963 0.95603 6.90963C1.30603 6.55963 1.7336 6.38463 2.23873 6.38463H17.6233C18.1284 6.38463 18.556 6.55963 18.906 6.90963C19.256 7.25963 19.431 7.68719 19.431 8.19233V17.5769C19.431 18.082 19.256 18.5096 18.906 18.8596C18.556 19.2096 18.1284 19.3846 17.6233 19.3846H2.23873ZM2.23873 17.8846H17.6233C17.7002 17.8846 17.7707 17.8526 17.8349 17.7885C17.899 17.7243 17.931 17.6538 17.931 17.5769V8.19233C17.931 8.11539 17.899 8.04487 17.8349 7.98075C17.7707 7.91665 17.7002 7.8846 17.6233 7.8846H2.23873C2.1618 7.8846 2.09127 7.91665 2.02716 7.98075C1.96306 8.04487 1.93101 8.11539 1.93101 8.19233V17.5769C1.93101 17.6538 1.96306 17.7243 2.02716 17.7885C2.09127 17.8526 2.1618 17.8846 2.23873 17.8846ZM8.87911 15.9461L12.9214 13.2615C13.0585 13.1679 13.1271 13.0423 13.1271 12.8846C13.1271 12.7269 13.0585 12.6013 12.9214 12.5077L8.87911 9.8231C8.72526 9.71925 8.57045 9.70835 8.41468 9.7904C8.25891 9.87245 8.18103 10.0039 8.18103 10.1846V15.5846C8.18103 15.7653 8.25891 15.8968 8.41468 15.9788C8.57045 16.0609 8.72526 16.05 8.87911 15.9461ZM2.93101 5C2.71819 5 2.53999 4.92821 2.39641 4.78463C2.25282 4.64103 2.18103 4.46282 2.18103 4.25C2.18103 4.0372 2.25282 3.859 2.39641 3.7154C2.53999 3.57182 2.71819 3.50003 2.93101 3.50003H16.931C17.1438 3.50003 17.322 3.57182 17.4656 3.7154C17.6092 3.859 17.681 4.0372 17.681 4.25C17.681 4.46282 17.6092 4.64103 17.4656 4.78463C17.322 4.92821 17.1438 5 16.931 5H2.93101ZM5.93101 2.11538C5.71819 2.11538 5.53999 2.04358 5.39641 1.9C5.25282 1.75642 5.18103 1.57822 5.18103 1.3654C5.18103 1.15258 5.25282 0.974385 5.39641 0.830801C5.53999 0.687218 5.71819 0.615425 5.93101 0.615425H13.931C14.1438 0.615425 14.322 0.687218 14.4656 0.830801C14.6092 0.974385 14.681 1.15258 14.681 1.3654C14.681 1.57822 14.6092 1.75642 14.4656 1.9C14.322 2.04358 14.1438 2.11538 13.931 2.11538H5.93101Z" fill="#0063FF"/>
</svg>
