<svg width="16" height="20" viewBox="0 0 16 20" fill="none" xmlns="http://www.w3.org/2000/svg">
<path d="M1.18103 16.7885C0.96853 16.7885 0.790405 16.7166 0.646655 16.5728C0.502905 16.4289 0.43103 16.2507 0.43103 16.0382C0.43103 15.8256 0.502905 15.6475 0.646655 15.5039C0.790405 15.3603 0.96853 15.2885 1.18103 15.2885H2.23873V7.82692C2.23873 6.48206 2.65379 5.29296 3.48391 4.25962C4.31404 3.22629 5.37975 2.5654 6.68103 2.27695V1.65387C6.68103 1.30666 6.80245 1.01152 7.04528 0.768475C7.28811 0.525408 7.58298 0.403873 7.92988 0.403873C8.27678 0.403873 8.57202 0.525408 8.8156 0.768475C9.05919 1.01152 9.18098 1.30666 9.18098 1.65387V2.27695C10.4823 2.5654 11.548 3.22629 12.3781 4.25962C13.2082 5.29296 13.6233 6.48206 13.6233 7.82692V15.2885H14.681C14.8935 15.2885 15.0716 15.3604 15.2154 15.5042C15.3591 15.648 15.431 15.8262 15.431 16.0388C15.431 16.2514 15.3591 16.4295 15.2154 16.5731C15.0716 16.7167 14.8935 16.7885 14.681 16.7885H1.18103ZM7.92931 19.5961C7.43172 19.5961 7.00633 19.4191 6.65313 19.0651C6.29993 18.7111 6.12333 18.2856 6.12333 17.7885H9.73868C9.73868 18.2872 9.56151 18.7131 9.20718 19.0663C8.85285 19.4195 8.42689 19.5961 7.92931 19.5961ZM3.73868 15.2885H12.1233V7.82692C12.1233 6.66922 11.714 5.68108 10.8954 4.8625C10.0768 4.0439 9.0887 3.6346 7.93101 3.6346C6.77331 3.6346 5.78516 4.0439 4.96658 4.8625C4.14798 5.68108 3.73868 6.66922 3.73868 7.82692V15.2885Z" fill="#0063FF"/>
</svg>
