<svg width="16" height="20" viewBox="0 0 16 20" fill="none" xmlns="http://www.w3.org/2000/svg">
<path d="M0.501819 2.30772C0.501819 1.80901 0.678427 1.38305 1.03164 1.02985C1.38484 0.676631 1.8108 0.500022 2.30952 0.500022L13.6941 0.500023C14.1928 0.500023 14.6187 0.676631 14.9719 1.02985C15.3252 1.38305 15.5018 1.80901 15.5018 2.30772L15.5018 17.6923C15.5018 18.191 15.3252 18.6169 14.9719 18.9701C14.6187 19.3234 14.1928 19.5 13.6941 19.5L2.30952 19.5C1.8108 19.5 1.38484 19.3234 1.03164 18.9701C0.678426 18.6169 0.501818 18.191 0.501818 17.6923L0.501819 2.30772ZM2.00179 2.30772L2.00179 17.6923C2.00179 17.782 2.03064 17.8557 2.08834 17.9134C2.14604 17.9711 2.21977 18 2.30952 18L13.6941 18C13.7838 18 13.8575 17.9712 13.9152 17.9135C13.9729 17.8558 14.0018 17.782 14.0018 17.6923L14.0018 2.30772C14.0018 2.21797 13.9729 2.14425 13.9152 2.08655C13.8575 2.02885 13.7838 2 13.6941 2L2.30952 2C2.21977 2 2.14605 2.02885 2.08835 2.08655C2.03065 2.14425 2.00179 2.21797 2.00179 2.30772ZM3.44414 3.44235L3.44414 14L12.5594 14L12.5594 3.44235L3.44414 3.44235ZM4.94409 4.9423L11.0595 4.9423L11.0595 12.5001L4.94409 12.5001L4.94409 4.9423Z" fill="#0063FF"/>
</svg>
