<svg width="19" height="16" viewBox="0 0 19 16" fill="none" xmlns="http://www.w3.org/2000/svg">
<path d="M7.43103 15C7.1477 15 6.9102 14.9042 6.71853 14.7125C6.52686 14.5208 6.43103 14.2833 6.43103 14C6.43103 13.7167 6.52686 13.4792 6.71853 13.2875C6.9102 13.0958 7.1477 13 7.43103 13H17.431C17.7144 13 17.9519 13.0958 18.1435 13.2875C18.3352 13.4792 18.431 13.7167 18.431 14C18.431 14.2833 18.3352 14.5208 18.1435 14.7125C17.9519 14.9042 17.7144 15 17.431 15H7.43103ZM7.43103 9C7.1477 9 6.9102 8.90417 6.71853 8.7125C6.52686 8.52083 6.43103 8.28333 6.43103 8C6.43103 7.71667 6.52686 7.47917 6.71853 7.2875C6.9102 7.09583 7.1477 7 7.43103 7H17.431C17.7144 7 17.9519 7.09583 18.1435 7.2875C18.3352 7.47917 18.431 7.71667 18.431 8C18.431 8.28333 18.3352 8.52083 18.1435 8.7125C17.9519 8.90417 17.7144 9 17.431 9H7.43103ZM7.43103 3C7.1477 3 6.9102 2.90417 6.71853 2.7125C6.52686 2.52083 6.43103 2.28333 6.43103 2C6.43103 1.71667 6.52686 1.47917 6.71853 1.2875C6.9102 1.09583 7.1477 1 7.43103 1H17.431C17.7144 1 17.9519 1.09583 18.1435 1.2875C18.3352 1.47917 18.431 1.71667 18.431 2C18.431 2.28333 18.3352 2.52083 18.1435 2.7125C17.9519 2.90417 17.7144 3 17.431 3H7.43103ZM2.43103 16C1.88103 16 1.4102 15.8042 1.01853 15.4125C0.626864 15.0208 0.43103 14.55 0.43103 14C0.43103 13.45 0.626864 12.9792 1.01853 12.5875C1.4102 12.1958 1.88103 12 2.43103 12C2.98103 12 3.45186 12.1958 3.84353 12.5875C4.2352 12.9792 4.43103 13.45 4.43103 14C4.43103 14.55 4.2352 15.0208 3.84353 15.4125C3.45186 15.8042 2.98103 16 2.43103 16ZM2.43103 10C1.88103 10 1.4102 9.80417 1.01853 9.4125C0.626864 9.02083 0.43103 8.55 0.43103 8C0.43103 7.45 0.626864 6.97917 1.01853 6.5875C1.4102 6.19583 1.88103 6 2.43103 6C2.98103 6 3.45186 6.19583 3.84353 6.5875C4.2352 6.97917 4.43103 7.45 4.43103 8C4.43103 8.55 4.2352 9.02083 3.84353 9.4125C3.45186 9.80417 2.98103 10 2.43103 10ZM2.43103 4C1.88103 4 1.4102 3.80417 1.01853 3.4125C0.626864 3.02083 0.43103 2.55 0.43103 2C0.43103 1.45 0.626864 0.979167 1.01853 0.5875C1.4102 0.195833 1.88103 0 2.43103 0C2.98103 0 3.45186 0.195833 3.84353 0.5875C4.2352 0.979167 4.43103 1.45 4.43103 2C4.43103 2.55 4.2352 3.02083 3.84353 3.4125C3.45186 3.80417 2.98103 4 2.43103 4Z" fill="#0063FF"/>
</svg>
